<?xml version="1.0" standalone="no"?><!DOCTYPE svg PUBLIC "-//W3C//DTD SVG 1.1//EN" "http://www.w3.org/Graphics/SVG/1.1/DTD/svg11.dtd"><svg t="1606881693473" class="icon" viewBox="0 0 1024 1024" version="1.1" xmlns="http://www.w3.org/2000/svg" p-id="3428" xmlns:xlink="http://www.w3.org/1999/xlink" width="200" height="200"><defs><style type="text/css"></style></defs><path d="M881.3 899c-2.6 0-5.1-1-7.1-2.9L620.7 642.6c-3.9-3.9-3.9-10.2 0-14.1 3.9-3.9 10.2-3.9 14.1 0L888.3 882c3.9 3.9 3.9 10.2 0 14.1-1.9 1.9-4.4 2.9-7 2.9zM365.4 678.9c-79 0-153.3-30.8-209.2-86.7-55.9-55.9-86.7-130.2-86.7-209.1 0-79 30.8-153.3 86.7-209.1 55.9-55.9 130.2-86.7 209.1-86.7 86.4 0 168.3 37.6 224.6 103.3 3.6 4.2 3.1 10.5-1.1 14.1-4.2 3.6-10.5 3.1-14.1-1.1-52.5-61.2-128.8-96.3-209.4-96.3-152.1 0-275.8 123.7-275.8 275.8s123.8 275.8 275.9 275.8c152.1 0 275.8-123.7 275.8-275.8 0-23-2.8-45.9-8.4-67.8-1.4-5.4 1.9-10.8 7.2-12.1 5.4-1.4 10.8 1.9 12.1 7.2 6 23.6 9 48.1 9 72.8 0 79-30.8 153.3-86.7 209.2-55.7 55.7-130 86.5-209 86.5z" p-id="3429"></path></svg>